<svg width="16" height="18" viewBox="0 0 16 18" fill="none" xmlns="http://www.w3.org/2000/svg">
<g clip-path="url(#clip0_3_1955)">
<path d="M11.8253 0C12.221 0.156998 12.3445 0.462391 12.3432 0.869295C12.3363 3.35846 12.3428 5.84763 12.3316 8.3368C12.3307 8.48649 12.2503 8.67101 12.1449 8.77897C11.3479 9.59665 10.5396 10.4036 9.72283 11.201C9.62304 11.2987 9.45098 11.3701 9.31119 11.3722C8.24963 11.3864 7.1872 11.386 6.12564 11.3727C5.98456 11.3709 5.80949 11.3069 5.71056 11.2101C4.88514 10.4049 4.06961 9.58891 3.26398 8.76392C3.16591 8.66327 3.09236 8.48993 3.09193 8.3497C3.0816 5.81494 3.08676 3.27975 3.08203 0.744987C3.0816 0.422389 3.18483 0.171622 3.46227 0C6.24952 0 9.03763 0 11.8253 0ZM4.11822 5.71816C4.12252 7.61418 5.57292 9.17555 7.46679 9.3132C8.11715 9.36051 8.73912 9.2276 9.32883 8.95619C9.61099 8.82629 9.70992 8.56907 9.61013 8.30497C9.5112 8.04302 9.26603 7.92903 8.96967 8.01334C8.86041 8.04431 8.75503 8.08904 8.6475 8.12647C7.2229 8.62542 5.72648 7.91355 5.27226 6.52165C4.82019 5.13662 5.60604 3.67332 7.0259 3.25738C8.6062 2.7937 10.2476 4.00796 10.2712 5.65579C10.2751 5.92506 10.1856 6.16765 9.91079 6.1926C9.72885 6.20937 9.50604 6.10485 9.35334 5.98699C9.26173 5.91602 9.25656 5.71773 9.23635 5.57321C9.13054 4.82693 8.63588 4.30604 7.92058 4.19894C7.27323 4.10216 6.60653 4.46691 6.32135 5.07512C6.04004 5.67429 6.19016 6.42358 6.67965 6.86231C7.20957 7.33718 7.92273 7.39997 8.54513 7.00425C8.69524 6.90876 8.78557 6.91006 8.93526 7.00468C9.4484 7.32943 9.98822 7.35825 10.5207 7.05243C11.0627 6.74101 11.3195 6.26056 11.3031 5.63386C11.2885 5.05275 11.138 4.51337 10.8571 4.00108C10.0811 2.58552 8.41996 1.8401 6.87407 2.22808C5.25979 2.63283 4.11435 4.08366 4.11822 5.71816Z" fill="#8A9094"/>
<path d="M0.875 17.4272C0.998448 17.2934 1.06383 17.2169 1.13523 17.1455C2.63596 15.643 4.1397 14.144 5.63483 12.636C5.80086 12.4682 5.96603 12.3998 6.2026 12.4024C7.22976 12.4149 8.25777 12.402 9.28492 12.4145C9.4273 12.4162 9.60709 12.4708 9.7043 12.5672C11.2781 14.1255 12.8417 15.6942 14.4069 17.2612C14.4379 17.2921 14.4633 17.3296 14.5411 17.4255C14.2676 17.4719 14.0405 17.5433 13.8138 17.5438C9.74946 17.5507 5.68516 17.5507 1.62085 17.5438C1.39116 17.5442 1.1619 17.4741 0.875 17.4272Z" fill="#8A9094"/>
<path d="M4.8003 11.928C3.29785 13.4334 1.72916 15.0047 0.116599 16.6203C0.0765971 16.3828 0.0056253 16.1574 0.00519516 15.9325C-0.00211706 13.0119 3.37482e-05 10.0909 0.00132414 7.16985C0.00132414 7.13802 0.0146583 7.10576 0.00777617 7.1363C1.60055 8.72907 3.21397 10.3421 4.8003 11.928Z" fill="#8A9094"/>
<path d="M10.6191 11.8587C12.1754 10.3025 13.7862 8.6912 15.3837 7.09326C15.5261 7.68684 15.431 16.2538 15.2925 16.5394C13.7389 14.9832 12.1723 13.414 10.6191 11.8587Z" fill="#8A9094"/>
<path d="M2.03518 7.55544C1.55988 7.07627 1.14394 6.65818 0.729298 6.23923C0.666499 6.17558 0.608432 6.10718 0.576172 6.07148C1.07168 5.5764 1.55601 5.09251 2.03518 4.61377C2.03518 5.54113 2.03518 6.49989 2.03518 7.55544Z" fill="#8A9094"/>
<path d="M14.8783 5.97548C14.3599 6.49508 13.8803 6.9751 13.3926 7.46373C13.3926 6.50798 13.3926 5.54277 13.3926 4.54443C13.4584 4.59261 13.4971 4.61497 13.5281 4.64508C13.9819 5.09113 14.4352 5.53847 14.8783 5.97548Z" fill="#8A9094"/>
<path d="M8.20245 5.69503C8.20374 5.99914 7.98566 6.23657 7.70823 6.23227C7.43897 6.22797 7.2153 6.00301 7.21099 5.73202C7.20669 5.44685 7.44456 5.20769 7.72543 5.21501C7.98008 5.22146 8.20116 5.44427 8.20245 5.69503Z" fill="#8A9094"/>
</g>
<defs>
<clipPath id="clip0_3_1955">
<rect width="16" height="18" fill="white"/>
</clipPath>
</defs>
</svg>
